<svg width="29" height="25" viewBox="0 0 29 25" fill="none" xmlns="http://www.w3.org/2000/svg">
<path d="M18.5016 24.2L18.5 24.2L18.45 24.2H18.4384L18.4384 24.1997C18.2051 24.1862 17.9807 24.1055 17.7921 23.9674C17.6035 23.8293 17.4589 23.6397 17.3756 23.4213L17.5625 23.35L17.3756 23.4213L10.3965 5.11925L6.59469 13.495L18.5016 24.2ZM18.5016 24.2C18.7236 24.1982 18.941 24.1361 19.1305 24.0203C19.3199 23.9045 19.4743 23.7394 19.5772 23.5427L19.5773 23.5427L19.579 23.5393L24.2363 14.2H27.5C27.8183 14.2 28.1235 14.0736 28.3485 13.8485C28.5736 13.6235 28.7 13.3183 28.7 13C28.7 12.6818 28.5736 12.3765 28.3485 12.1515C28.1235 11.9264 27.8183 11.8 27.5 11.8L23.5 11.8L23.4984 11.8C23.2764 11.8018 23.059 11.8639 22.8695 11.9797C22.6801 12.0955 22.5257 12.2606 22.4228 12.4573L22.4227 12.4573L22.4211 12.4607L18.6496 20.0154M18.5016 24.2L18.6496 20.0154M18.6496 20.0154L11.6249 1.58015C11.6248 1.57991 11.6247 1.57967 11.6246 1.57942C11.5418 1.35757 11.3951 1.16518 11.2031 1.02651C11.0109 0.887692 10.7818 0.808924 10.5449 0.80015V0.800128L10.542 0.800063C10.3051 0.79476 10.0718 0.858267 9.87025 0.982889C9.66873 1.10751 9.50768 1.2879 9.40661 1.5022L9.40659 1.50219L9.40546 1.50469L4.72127 11.8H1.5C1.18174 11.8 0.876515 11.9264 0.651472 12.1515C0.426428 12.3765 0.3 12.6818 0.3 13C0.3 13.3183 0.426428 13.6235 0.651472 13.8485C0.876516 14.0736 1.18174 14.2 1.5 14.2H5.49969H5.5V14L18.6496 20.0154Z" fill="#7C7C7C" stroke="#7C7C7C" stroke-width="0.4"/>
</svg>
