<svg width="25" height="16" viewBox="0 0 25 16" fill="none" xmlns="http://www.w3.org/2000/svg">
<path d="M21.8303 1.18969C22.086 0.933427 22.4183 0.767411 22.7768 0.716746C23.1352 0.666081 23.5005 0.733523 23.8172 0.908871C24.134 1.08422 24.385 1.35794 24.5323 1.68863C24.6797 2.01933 24.7154 2.38901 24.634 2.74179L24.634 9.07746C24.6339 9.29638 24.5907 9.51313 24.5069 9.71535C24.423 9.91757 24.3002 10.1013 24.1453 10.256C23.9905 10.4108 23.8066 10.5335 23.6044 10.6172C23.4021 10.7009 23.1853 10.744 22.9664 10.7439C22.7475 10.7438 22.5307 10.7006 22.3285 10.6168C22.1263 10.5329 21.9425 10.4101 21.7878 10.2552C21.6331 10.1004 21.5103 9.91654 21.4266 9.71426C21.3429 9.51198 21.2999 9.2952 21.3 9.07628L21.3011 6.43524L12.4034 15.333C12.0908 15.6456 11.6669 15.8212 11.2249 15.8212C10.7828 15.8212 10.3589 15.6456 10.0464 15.333C9.7338 15.0204 9.5582 14.5965 9.5582 14.1545C9.5582 13.7125 9.7338 13.2885 10.0464 12.976L21.8315 1.19086L21.8303 1.18969ZM2.99533 15.386C2.73958 15.6423 2.40735 15.8083 2.04887 15.859C1.69039 15.9096 1.32516 15.8422 1.00841 15.6668C0.691667 15.4915 0.440632 15.2178 0.293271 14.8871C0.14591 14.5564 0.110239 14.1867 0.191649 13.8339L0.191648 7.49826C0.191805 7.05614 0.367584 6.63219 0.680319 6.31968C0.993053 6.00717 1.41713 5.83169 1.85924 5.83184C2.30136 5.832 2.72531 6.00778 3.03782 6.32051C3.35033 6.63325 3.52581 7.05732 3.52566 7.49944L3.52448 10.1405L12.4222 1.24272C12.7348 0.930159 13.1587 0.754564 13.6007 0.754564C14.0428 0.754564 14.4667 0.930159 14.7793 1.24272C15.0918 1.55528 15.2674 1.9792 15.2674 2.42123C15.2674 2.86326 15.0918 3.28718 14.7793 3.59974L2.99415 15.3849L2.99533 15.386Z" fill="#7C7C7C"/>
</svg>
