<svg id="home" width="23" height="24" viewBox="0 0 23 24" fill="none" xmlns="http://www.w3.org/2000/svg">
<path d="M3.5 24C2.76667 24 2.13911 23.7391 1.61733 23.2173C1.09467 22.6946 0.833334 22.0666 0.833334 21.3333V9.33329C0.833334 8.91107 0.928 8.51107 1.11733 8.13329C1.30578 7.75552 1.56667 7.4444 1.9 7.19996L9.9 1.19996C10.1444 1.02218 10.4 0.888848 10.6667 0.799959C10.9333 0.71107 11.2111 0.666626 11.5 0.666626C11.7889 0.666626 12.0667 0.71107 12.3333 0.799959C12.6 0.888848 12.8556 1.02218 13.1 1.19996L21.1 7.19996C21.4333 7.4444 21.6947 7.75552 21.884 8.13329C22.0724 8.51107 22.1667 8.91107 22.1667 9.33329V21.3333C22.1667 22.0666 21.9058 22.6946 21.384 23.2173C20.8613 23.7391 20.2333 24 19.5 24H14.1667V14.6666H8.83333V24H3.5Z" fill="#14DC9C"/>
</svg>
