<svg width="23" height="6" viewBox="0 0 23 6" fill="none" xmlns="http://www.w3.org/2000/svg">
<path d="M3.50001 0.333374C2.03334 0.333374 0.833344 1.53337 0.833344 3.00004C0.833344 4.46671 2.03334 5.66671 3.50001 5.66671C4.96668 5.66671 6.16668 4.46671 6.16668 3.00004C6.16668 1.53337 4.96668 0.333374 3.50001 0.333374ZM19.5 0.333374C18.0333 0.333374 16.8333 1.53337 16.8333 3.00004C16.8333 4.46671 18.0333 5.66671 19.5 5.66671C20.9667 5.66671 22.1667 4.46671 22.1667 3.00004C22.1667 1.53337 20.9667 0.333374 19.5 0.333374ZM11.5 0.333374C10.0333 0.333374 8.83334 1.53337 8.83334 3.00004C8.83334 4.46671 10.0333 5.66671 11.5 5.66671C12.9667 5.66671 14.1667 4.46671 14.1667 3.00004C14.1667 1.53337 12.9667 0.333374 11.5 0.333374Z" fill="#7C7C7C"/>
</svg>
