<svg width="27" height="28" viewBox="0 0 27 28" fill="none" xmlns="http://www.w3.org/2000/svg">
<mask id="path-1-inside-1_0_230" fill="white">
<path fill-rule="evenodd" clip-rule="evenodd" d="M16.9587 1.86271C15.9937 1.04032 14.7672 0.588623 13.4993 0.588623C12.2314 0.588623 11.005 1.04032 10.04 1.86271L9.53867 2.28938C9.11171 2.65359 8.58074 2.87382 8.02134 2.91871L7.364 2.97205C6.09996 3.07264 4.91312 3.62031 4.01636 4.51682C3.1196 5.41334 2.5716 6.60003 2.47067 7.86405L2.41867 8.52138C2.37416 9.08062 2.1544 9.61159 1.79067 10.0387L1.36267 10.54C0.539926 11.5051 0.0880127 12.7318 0.0880127 14C0.0880127 15.2682 0.539926 16.4949 1.36267 17.46L1.78934 17.9614C2.15355 18.3883 2.37378 18.9193 2.41867 19.4787L2.472 20.136C2.57259 21.4001 3.12027 22.5869 4.01678 23.4837C4.9133 24.3805 6.09999 24.9284 7.364 25.0294L8.02134 25.0814C8.58058 25.1259 9.11154 25.3456 9.53867 25.7094L10.04 26.136C11.0051 26.9588 12.2318 27.4107 13.5 27.4107C14.7682 27.4107 15.9949 26.9588 16.96 26.136L17.4613 25.7094C17.8885 25.3456 18.4194 25.1259 18.9787 25.0814L19.636 25.028C20.9 24.9275 22.0869 24.3798 22.9837 23.4833C23.8804 22.5868 24.4284 21.4001 24.5293 20.136L24.58 19.4787C24.6249 18.9193 24.8451 18.3883 25.2093 17.9614L25.636 17.4587C26.4584 16.4937 26.9101 15.2673 26.9101 13.9994C26.9101 12.7315 26.4584 11.5051 25.636 10.54L25.2093 10.0387C24.8451 9.61176 24.6249 9.08078 24.58 8.52138L24.528 7.86405C24.4274 6.60001 23.8797 5.41316 22.9832 4.5164C22.0867 3.61964 20.9 3.07165 19.636 2.97071L18.9787 2.91871C18.4194 2.8742 17.8885 2.65444 17.4613 2.29071L16.9587 1.86405V1.86271ZM11.7707 3.89338C12.2531 3.48236 12.8662 3.25662 13.5 3.25662C14.1338 3.25662 14.7469 3.48236 15.2293 3.89338L15.732 4.32138C16.5861 5.04932 17.648 5.48931 18.7667 5.57871L19.424 5.63205C20.0557 5.68262 20.6487 5.9565 21.0968 6.40459C21.5449 6.85268 21.8188 7.4457 21.8693 8.07738L21.9227 8.73471C22.0121 9.85336 22.4521 10.9153 23.18 11.7694L23.6067 12.272C24.0177 12.7545 24.2434 13.3676 24.2434 14.0014C24.2434 14.6352 24.0177 15.2483 23.6067 15.7307L23.18 16.2334C22.4521 17.0875 22.0121 18.1494 21.9227 19.268L21.8693 19.9254C21.8188 20.5571 21.5449 21.1501 21.0968 21.5982C20.6487 22.0463 20.0557 22.3201 19.424 22.3707L18.7667 22.424C17.648 22.5135 16.5861 22.9534 15.732 23.6814L15.2293 24.108C14.7469 24.5191 14.1338 24.7448 13.5 24.7448C12.8662 24.7448 12.2531 24.5191 11.7707 24.108L11.268 23.6814C10.4139 22.9534 9.35198 22.5135 8.23334 22.424L7.576 22.3707C6.94409 22.3204 6.35075 22.0467 5.90238 21.5986C5.45402 21.1505 5.17996 20.5573 5.12934 19.9254L5.076 19.268C4.98698 18.1496 4.54746 17.0876 3.82 16.2334L3.39334 15.7307C2.98232 15.2483 2.75658 14.6352 2.75658 14.0014C2.75658 13.3676 2.98232 12.7545 3.39334 12.272L3.82 11.7694C4.54795 10.9153 4.98793 9.85336 5.07734 8.73471L5.13067 8.07738C5.18094 7.44547 5.45469 6.85213 5.90281 6.40376C6.35093 5.9554 6.94412 5.68133 7.576 5.63071L8.23334 5.57871C9.35198 5.48931 10.4139 5.04932 11.268 4.32138L11.7707 3.89471V3.89338ZM18.4427 10.944C18.57 10.8211 18.6716 10.6739 18.7415 10.5113C18.8114 10.3486 18.8481 10.1736 18.8497 9.99658C18.8512 9.81954 18.8175 9.64397 18.7504 9.48011C18.6834 9.31625 18.5844 9.16738 18.4592 9.04219C18.334 8.917 18.1851 8.81799 18.0213 8.75095C17.8574 8.68391 17.6818 8.65017 17.5048 8.65171C17.3278 8.65325 17.1528 8.69003 16.9901 8.75991C16.8275 8.82979 16.6803 8.93137 16.5573 9.05871L8.55734 17.0587C8.42999 17.1817 8.32841 17.3288 8.25854 17.4915C8.18866 17.6542 8.15188 17.8291 8.15034 18.0062C8.1488 18.1832 8.18253 18.3588 8.24958 18.5227C8.31662 18.6865 8.41562 18.8354 8.54081 18.9606C8.666 19.0858 8.81487 19.1848 8.97873 19.2518C9.14259 19.3188 9.31817 19.3526 9.4952 19.351C9.67224 19.3495 9.8472 19.3127 10.0099 19.2428C10.1725 19.173 10.3197 19.0714 10.4427 18.944L18.4427 10.944ZM12.1667 10.6667C12.1667 11.1971 11.956 11.7059 11.5809 12.0809C11.2058 12.456 10.6971 12.6667 10.1667 12.6667C9.63624 12.6667 9.12753 12.456 8.75246 12.0809C8.37738 11.7059 8.16667 11.1971 8.16667 10.6667C8.16667 10.1363 8.37738 9.62757 8.75246 9.2525C9.12753 8.87743 9.63624 8.66671 10.1667 8.66671C10.6971 8.66671 11.2058 8.87743 11.5809 9.2525C11.956 9.62757 12.1667 10.1363 12.1667 10.6667ZM16.8333 19.3334C17.3638 19.3334 17.8725 19.1227 18.2476 18.7476C18.6226 18.3725 18.8333 17.8638 18.8333 17.3334C18.8333 16.8029 18.6226 16.2942 18.2476 15.9192C17.8725 15.5441 17.3638 15.3334 16.8333 15.3334C16.3029 15.3334 15.7942 15.5441 15.4191 15.9192C15.0441 16.2942 14.8333 16.8029 14.8333 17.3334C14.8333 17.8638 15.0441 18.3725 15.4191 18.7476C15.7942 19.1227 16.3029 19.3334 16.8333 19.3334Z"/>
</mask>
<path fill-rule="evenodd" clip-rule="evenodd" d="M16.9587 1.86271C15.9937 1.04032 14.7672 0.588623 13.4993 0.588623C12.2314 0.588623 11.005 1.04032 10.04 1.86271L9.53867 2.28938C9.11171 2.65359 8.58074 2.87382 8.02134 2.91871L7.364 2.97205C6.09996 3.07264 4.91312 3.62031 4.01636 4.51682C3.1196 5.41334 2.5716 6.60003 2.47067 7.86405L2.41867 8.52138C2.37416 9.08062 2.1544 9.61159 1.79067 10.0387L1.36267 10.54C0.539926 11.5051 0.0880127 12.7318 0.0880127 14C0.0880127 15.2682 0.539926 16.4949 1.36267 17.46L1.78934 17.9614C2.15355 18.3883 2.37378 18.9193 2.41867 19.4787L2.472 20.136C2.57259 21.4001 3.12027 22.5869 4.01678 23.4837C4.9133 24.3805 6.09999 24.9284 7.364 25.0294L8.02134 25.0814C8.58058 25.1259 9.11154 25.3456 9.53867 25.7094L10.04 26.136C11.0051 26.9588 12.2318 27.4107 13.5 27.4107C14.7682 27.4107 15.9949 26.9588 16.96 26.136L17.4613 25.7094C17.8885 25.3456 18.4194 25.1259 18.9787 25.0814L19.636 25.028C20.9 24.9275 22.0869 24.3798 22.9837 23.4833C23.8804 22.5868 24.4284 21.4001 24.5293 20.136L24.58 19.4787C24.6249 18.9193 24.8451 18.3883 25.2093 17.9614L25.636 17.4587C26.4584 16.4937 26.9101 15.2673 26.9101 13.9994C26.9101 12.7315 26.4584 11.5051 25.636 10.54L25.2093 10.0387C24.8451 9.61176 24.6249 9.08078 24.58 8.52138L24.528 7.86405C24.4274 6.60001 23.8797 5.41316 22.9832 4.5164C22.0867 3.61964 20.9 3.07165 19.636 2.97071L18.9787 2.91871C18.4194 2.8742 17.8885 2.65444 17.4613 2.29071L16.9587 1.86405V1.86271ZM11.7707 3.89338C12.2531 3.48236 12.8662 3.25662 13.5 3.25662C14.1338 3.25662 14.7469 3.48236 15.2293 3.89338L15.732 4.32138C16.5861 5.04932 17.648 5.48931 18.7667 5.57871L19.424 5.63205C20.0557 5.68262 20.6487 5.9565 21.0968 6.40459C21.5449 6.85268 21.8188 7.4457 21.8693 8.07738L21.9227 8.73471C22.0121 9.85336 22.4521 10.9153 23.18 11.7694L23.6067 12.272C24.0177 12.7545 24.2434 13.3676 24.2434 14.0014C24.2434 14.6352 24.0177 15.2483 23.6067 15.7307L23.18 16.2334C22.4521 17.0875 22.0121 18.1494 21.9227 19.268L21.8693 19.9254C21.8188 20.5571 21.5449 21.1501 21.0968 21.5982C20.6487 22.0463 20.0557 22.3201 19.424 22.3707L18.7667 22.424C17.648 22.5135 16.5861 22.9534 15.732 23.6814L15.2293 24.108C14.7469 24.5191 14.1338 24.7448 13.5 24.7448C12.8662 24.7448 12.2531 24.5191 11.7707 24.108L11.268 23.6814C10.4139 22.9534 9.35198 22.5135 8.23334 22.424L7.576 22.3707C6.94409 22.3204 6.35075 22.0467 5.90238 21.5986C5.45402 21.1505 5.17996 20.5573 5.12934 19.9254L5.076 19.268C4.98698 18.1496 4.54746 17.0876 3.82 16.2334L3.39334 15.7307C2.98232 15.2483 2.75658 14.6352 2.75658 14.0014C2.75658 13.3676 2.98232 12.7545 3.39334 12.272L3.82 11.7694C4.54795 10.9153 4.98793 9.85336 5.07734 8.73471L5.13067 8.07738C5.18094 7.44547 5.45469 6.85213 5.90281 6.40376C6.35093 5.9554 6.94412 5.68133 7.576 5.63071L8.23334 5.57871C9.35198 5.48931 10.4139 5.04932 11.268 4.32138L11.7707 3.89471V3.89338ZM18.4427 10.944C18.57 10.8211 18.6716 10.6739 18.7415 10.5113C18.8114 10.3486 18.8481 10.1736 18.8497 9.99658C18.8512 9.81954 18.8175 9.64397 18.7504 9.48011C18.6834 9.31625 18.5844 9.16738 18.4592 9.04219C18.334 8.917 18.1851 8.81799 18.0213 8.75095C17.8574 8.68391 17.6818 8.65017 17.5048 8.65171C17.3278 8.65325 17.1528 8.69003 16.9901 8.75991C16.8275 8.82979 16.6803 8.93137 16.5573 9.05871L8.55734 17.0587C8.42999 17.1817 8.32841 17.3288 8.25854 17.4915C8.18866 17.6542 8.15188 17.8291 8.15034 18.0062C8.1488 18.1832 8.18253 18.3588 8.24958 18.5227C8.31662 18.6865 8.41562 18.8354 8.54081 18.9606C8.666 19.0858 8.81487 19.1848 8.97873 19.2518C9.14259 19.3188 9.31817 19.3526 9.4952 19.351C9.67224 19.3495 9.8472 19.3127 10.0099 19.2428C10.1725 19.173 10.3197 19.0714 10.4427 18.944L18.4427 10.944ZM12.1667 10.6667C12.1667 11.1971 11.956 11.7059 11.5809 12.0809C11.2058 12.456 10.6971 12.6667 10.1667 12.6667C9.63624 12.6667 9.12753 12.456 8.75246 12.0809C8.37738 11.7059 8.16667 11.1971 8.16667 10.6667C8.16667 10.1363 8.37738 9.62757 8.75246 9.2525C9.12753 8.87743 9.63624 8.66671 10.1667 8.66671C10.6971 8.66671 11.2058 8.87743 11.5809 9.2525C11.956 9.62757 12.1667 10.1363 12.1667 10.6667ZM16.8333 19.3334C17.3638 19.3334 17.8725 19.1227 18.2476 18.7476C18.6226 18.3725 18.8333 17.8638 18.8333 17.3334C18.8333 16.8029 18.6226 16.2942 18.2476 15.9192C17.8725 15.5441 17.3638 15.3334 16.8333 15.3334C16.3029 15.3334 15.7942 15.5441 15.4191 15.9192C15.0441 16.2942 14.8333 16.8029 14.8333 17.3334C14.8333 17.8638 15.0441 18.3725 15.4191 18.7476C15.7942 19.1227 16.3029 19.3334 16.8333 19.3334Z" fill="#7C7C7C" stroke="white" stroke-width="0.2" mask="url(#path-1-inside-1_0_230)"/>
</svg>
