<svg width="32" height="32" viewBox="0 0 32 32" fill="none" xmlns="http://www.w3.org/2000/svg">
<circle cx="16" cy="16" r="16" fill="#EBF1F8"/>
<g clip-path="url(#clip0_0_139)">
<path d="M14.155 20.1475C14.2015 20.1175 14.257 20.104 14.3035 20.0665C14.3155 20.056 14.326 20.0455 14.338 20.035C14.338 20.0335 14.338 20.032 14.3365 20.0305C14.281 19.8625 14.4655 19.7635 14.5915 19.6885C14.641 19.6615 14.695 19.651 14.7445 19.6165C14.8045 19.5745 14.8555 19.522 14.9185 19.483C15.0085 19.429 15.1105 19.4215 15.199 19.369C15.301 19.306 15.367 19.201 15.4735 19.1545C15.655 19.0735 15.8425 19.012 16.021 18.931C16.0405 18.9145 16.06 18.9055 16.078 18.9055C16.096 18.8965 16.1155 18.8905 16.132 18.8815C16.2565 18.817 16.357 18.742 16.453 18.637C16.4815 18.604 16.558 18.52 16.6 18.55C16.687 18.616 16.657 18.9355 16.6555 19.0315C16.6555 19.135 16.657 19.2385 16.6585 19.3405C16.684 20.569 16.834 21.7045 16.927 22.7785C16.9375 22.9045 16.9495 23.0305 16.96 23.155C16.9645 23.2195 16.9525 23.2375 16.939 23.293C16.9285 23.3395 16.9495 23.389 16.918 23.431C16.8685 23.5 16.7845 23.5765 16.717 23.632C16.708 23.6395 16.6975 23.647 16.687 23.6545C16.6885 23.692 16.6975 23.728 16.675 23.7625C16.6285 23.8345 16.5475 23.914 16.4845 23.974C16.3105 24.1375 16.1185 24.274 15.9175 24.4015C15.7885 24.484 15.6475 24.5725 15.5335 24.6745C15.4075 24.7885 15.226 24.9685 15.169 24.7315C15.1165 24.52 15.058 24.3085 15.0025 24.0925C14.8795 23.626 14.758 23.1445 14.596 22.6615C14.3785 22.012 14.149 21.358 13.9795 20.695C13.9645 20.6335 13.9405 20.5645 13.9165 20.506C13.852 20.338 14.032 20.2285 14.155 20.1475Z" fill="#ED6C30"/>
<path d="M15.5155 25.0315C15.9505 24.691 16.108 24.5365 16.4365 24.214C16.741 23.917 17.4565 23.2285 17.788 22.7815C17.9755 22.5265 18.0775 22.3645 17.911 22.126C17.8465 22.0345 17.716 22.0225 17.6125 22.0435C17.455 22.0765 17.332 22.1605 17.203 22.258C16.8115 22.555 16.0405 23.2105 15.6775 23.539C15.5155 23.686 15.31 23.9035 15.1555 24.061C14.734 24.4915 14.443 24.94 14.7175 25.2025C14.9665 25.4365 15.316 25.1875 15.5155 25.0315Z" fill="#ED6C30"/>
<path d="M11.6275 17.704C11.6575 17.6575 11.671 17.602 11.7085 17.554C11.719 17.542 11.7295 17.5315 11.74 17.5195C11.7415 17.521 11.7445 17.521 11.746 17.521C11.914 17.578 12.013 17.392 12.088 17.2645C12.115 17.2165 12.1255 17.161 12.1615 17.1115C12.2035 17.0515 12.256 17.0005 12.2935 16.9375C12.3475 16.8475 12.3565 16.7455 12.409 16.657C12.4705 16.555 12.5755 16.4905 12.6235 16.3825C12.7045 16.201 12.766 16.015 12.847 15.835C12.8635 15.8155 12.8725 15.7945 12.8725 15.7765C12.8815 15.7585 12.8875 15.739 12.8965 15.7225C12.961 15.5995 13.036 15.4975 13.141 15.4015C13.1725 15.3745 13.2565 15.298 13.2265 15.2575C13.162 15.1705 12.841 15.2005 12.745 15.202C12.6415 15.202 12.538 15.199 12.4375 15.1975C11.2105 15.172 10.075 15.022 8.9995 14.9305C8.8735 14.92 8.7475 14.9065 8.623 14.8975C8.56 14.8915 8.5405 14.905 8.4865 14.917C8.44 14.9275 8.3905 14.9065 8.3485 14.938C8.278 14.989 8.203 15.073 8.1475 15.139C8.14 15.148 8.1325 15.1585 8.125 15.1705C8.089 15.1675 8.0515 15.1585 8.017 15.1825C7.945 15.2305 7.8655 15.31 7.807 15.373C7.6435 15.5485 7.507 15.7405 7.378 15.94C7.2955 16.069 7.207 16.21 7.105 16.324C6.988 16.45 6.808 16.63 7.045 16.6885C7.255 16.741 7.4665 16.7995 7.684 16.855C8.1505 16.978 8.6305 17.0995 9.1165 17.2615C9.766 17.4775 10.4185 17.7085 11.083 17.8765C11.1445 17.893 11.212 17.9155 11.2735 17.9395C11.4355 18.0055 11.545 17.8255 11.6275 17.704Z" fill="#ED6C30"/>
<path d="M6.7435 16.342C7.0825 15.907 7.2385 15.7495 7.5595 15.421C7.858 15.1165 8.545 14.4025 8.9935 14.071C9.2485 13.882 9.4105 13.7815 9.649 13.948C9.7405 14.011 9.754 14.143 9.7315 14.2465C9.6985 14.4025 9.6145 14.5255 9.517 14.6545C9.2185 15.046 8.5645 15.817 8.236 16.18C8.089 16.342 7.87 16.549 7.714 16.702C7.2835 17.1235 6.835 17.4145 6.574 17.14C6.3385 16.891 6.5875 16.543 6.7435 16.342Z" fill="#ED6C30"/>
<path d="M22.1125 10.138C21.967 9.98952 22.0015 9.72252 22.192 9.54252C22.729 9.06252 23.2735 8.57352 23.824 8.08302C23.9095 8.00502 23.9755 7.91802 24.0655 7.84902C24.241 7.71552 24.4135 7.57002 24.58 7.42152C24.727 7.28952 24.874 7.11102 25.0585 7.03452C25.201 6.97602 25.4215 6.99552 25.492 7.11102C25.6315 7.33302 25.252 7.69152 25.0675 7.85202C24.7195 8.15202 24.397 8.48052 24.0685 8.80002C23.6185 9.23802 23.1745 9.67152 22.723 10.0915C22.5325 10.2685 22.2595 10.2895 22.1125 10.138Z" fill="#ED6C30"/>
<path d="M16.129 11.5585C16.5445 11.1835 16.9765 10.828 17.4235 10.495C17.7625 10.2445 18.073 10.0345 18.3205 9.88004C18.727 9.62504 19.147 9.38954 19.5775 9.17504C20.131 8.89904 20.6725 8.68004 21.193 8.51204C21.7615 8.32754 22.357 8.17904 22.867 8.12054C23.23 8.07854 23.5975 8.07854 23.857 8.22404C24.1465 8.38454 24.274 8.79404 24.2545 9.17654C24.2155 9.91304 23.9965 10.753 23.635 11.617C23.4614 12.0371 23.2579 12.4441 23.026 12.835C21.1915 15.928 18.2335 18.298 15.0415 20.014C14.713 20.188 14.3575 20.3305 14.0155 20.5345C14.002 20.5435 13.987 20.5465 13.972 20.5555C13.8985 20.5915 13.8535 20.6095 13.843 20.6065C13.291 20.8045 12.496 20.5645 11.8795 19.9315C11.257 19.3015 11.0395 18.5125 11.2555 17.9605C11.2555 17.9605 11.2765 17.92 11.3155 17.8465C12.5575 15.532 14.161 13.33 16.129 11.5585Z" fill="#78A3AD"/>
<path d="M24.3445 10.9285C24.3625 10.8415 24.3715 10.7485 24.394 10.6795C24.5185 10.279 24.586 9.88601 24.5935 9.47201C24.5995 9.11501 24.5395 8.73701 24.427 8.40251C24.3415 8.14451 24.163 7.76651 23.9005 7.67201C23.5885 7.55951 23.269 7.59251 22.9435 7.61651C22.6435 7.63901 22.336 7.64651 22.0525 7.72301C21.763 7.79951 21.4765 7.97051 21.256 8.17001C21.1765 8.24201 21.019 8.37701 21.0025 8.48951C20.9815 8.62901 21.1435 8.85401 21.2065 8.97551C21.3715 9.29351 21.6535 9.52901 21.877 9.80501C22.18 10.186 22.5325 10.441 22.9435 10.708C23.176 10.858 23.404 11.0215 23.656 11.134C23.7925 11.1955 24.115 11.2525 24.241 11.146C24.2995 11.0935 24.3265 11.014 24.3445 10.9285Z" fill="#ED6C30"/>
<path d="M19.3825 11.647C19.3085 11.716 19.2488 11.799 19.2069 11.8912C19.165 11.9833 19.1417 12.0828 19.1384 12.184C19.135 12.2852 19.1517 12.386 19.1874 12.4808C19.2231 12.5755 19.2772 12.6622 19.3465 12.736C19.4156 12.8099 19.4987 12.8695 19.5909 12.9112C19.6831 12.953 19.7827 12.9762 19.8838 12.9794C19.985 12.9826 20.0858 12.9658 20.1805 12.9299C20.2752 12.8941 20.3618 12.8399 20.4355 12.7705C20.5096 12.7013 20.5693 12.6181 20.6112 12.5258C20.653 12.4335 20.6762 12.3338 20.6794 12.2324C20.6826 12.1311 20.6658 12.0301 20.6298 11.9353C20.5939 11.8405 20.5396 11.7537 20.47 11.68C20.182 11.3695 19.6945 11.3545 19.3825 11.647Z" fill="white"/>
<path d="M18.3939 14.6898C18.7044 14.3985 18.72 13.9105 18.4287 13.6C18.1373 13.2894 17.6494 13.2739 17.3389 13.5652C17.0283 13.8565 17.0128 14.3445 17.3041 14.655C17.5954 14.9656 18.0834 14.9811 18.3939 14.6898Z" fill="white"/>
<path d="M15.2935 15.4825C14.9845 15.7735 14.9665 16.261 15.259 16.5715C15.3989 16.7207 15.5924 16.8083 15.7968 16.8151C16.0013 16.8218 16.2 16.7472 16.3495 16.6075C16.66 16.315 16.675 15.8275 16.384 15.517C16.2439 15.368 16.0503 15.2807 15.8459 15.2742C15.6414 15.2677 15.4428 15.3426 15.2935 15.4825Z" fill="white"/>
<path d="M11.2 21.079C11.6335 20.7385 11.791 20.5825 12.121 20.2615C12.4255 19.9645 13.1395 19.276 13.471 18.8275C13.66 18.5725 13.759 18.4105 13.594 18.172C13.5295 18.0805 13.399 18.0685 13.2955 18.0895C13.1395 18.121 13.0165 18.2065 12.886 18.304C12.4945 18.601 11.7235 19.255 11.3605 19.585C11.1985 19.732 10.9915 19.9495 10.8385 20.107C10.4185 20.5375 10.126 20.986 10.4005 21.247C10.6495 21.484 11.0005 21.235 11.2 21.079Z" fill="#ED6C30"/>
</g>
<defs>
<clipPath id="clip0_0_139">
<rect width="19.2" height="19.2" fill="white" transform="translate(6.4 6.40002)"/>
</clipPath>
</defs>
</svg>
