<svg width="48" height="16" viewBox="0 0 48 16" fill="none" xmlns="http://www.w3.org/2000/svg">
<path d="M44.444 15.536L43.994 13.286H38.966L38.166 15.52L34.136 15.528C36.0546 10.9143 37.9772 6.30227 39.904 1.69199C40.232 0.90999 40.814 0.511991 41.672 0.515991C42.328 0.521991 43.398 0.52199 44.884 0.51799L48 15.53L44.444 15.536ZM40.098 10.204H43.338L42.128 4.56399L40.098 10.204ZM14.12 0.51399L18.172 0.51799L11.908 15.538L7.806 15.534C6.7745 11.5666 5.75583 7.59594 4.75 3.62199C4.55 2.82999 4.154 2.27599 3.392 2.01399C2.26645 1.63684 1.13567 1.27547 0 0.929991L0 0.519991H6.474C7.594 0.519991 8.248 1.06199 8.458 2.17399C8.67 3.28799 9.202 6.12399 10.058 10.682L14.12 0.51399ZM23.74 0.51799L20.536 15.534L16.68 15.53L19.88 0.51399L23.74 0.51799ZM31.56 0.23999C32.714 0.23999 34.168 0.599991 35.004 0.929991L34.328 4.04399C33.572 3.73999 32.328 3.32999 31.282 3.34399C29.762 3.36999 28.822 4.00799 28.822 4.61999C28.822 5.61599 30.454 6.11799 32.134 7.20599C34.052 8.44599 34.304 9.55999 34.28 10.77C34.254 13.282 32.134 15.76 27.662 15.76C25.622 15.73 24.886 15.558 23.222 14.968L23.926 11.718C25.62 12.428 26.338 12.654 27.786 12.654C29.112 12.654 30.25 12.118 30.26 11.184C30.268 10.52 29.86 10.19 28.372 9.36999C26.884 8.54799 24.796 7.40999 24.824 5.12599C24.858 2.20199 27.628 0.23999 31.562 0.23999H31.56Z" fill="#BCBCBC"/>
</svg>
